<?xml version="1.0" encoding="utf-8"?>
<!-- Generator: Adobe Illustrator 26.3.1, SVG Export Plug-In . SVG Version: 6.00 Build 0)  -->
<svg version="1.1" id="Layer_1" xmlns="http://www.w3.org/2000/svg" xmlns:xlink="http://www.w3.org/1999/xlink" x="0px" y="0px"
	 viewBox="45 275 580 300" style="enable-background:new 0 300 595.28 300;" xml:space="preserve">
<defs>
	<style type="text/css">
		@font-face {
			font-family: 'AvenirLTProMedium';
			src: url('/fonts/AvenirLTProMedium.woff2') format('woff2'),
			     url('/fonts/AvenirLTProMedium.otf') format('opentype');
			font-weight: 500;
			font-style: normal;
			font-display: swap;
		}
	</style>
	<style type="text/css">
		.st0{fill:#181e3a;}
		.st1{font-family:'AvenirLTProMedium', sans-serif;}
		.st2{font-size:79.397px;}
		.st3{fill:#353535;}
		.st4{opacity:0.75;fill:#4a5aa8;}
		.st5{fill:#4a5aa8;}
	</style>
</defs>
<g>
	<g>
		<text transform="matrix(1 0 0 1 177.5483 403.4192)"><tspan x="0" y="0" class="st0 st1 st2">emergency</tspan><tspan x="0" y="73.9" class="st0 st1 st2">exit</tspan></text>
	</g>
	<g>
		<path class="st3" d="M79.04,507.69c-1.04,0-2.05-0.31-2.93-0.9c-1.5-1-2.36-2.61-2.36-4.41V380.4c0-4.68,2.33-9.01,6.22-11.6
			c0.86-0.57,1.88-1.05,3.21-1.5l1.18-0.4l22.49-5.1c27.88-5.74,41.34-8.91,47.48-12.52l2.47-1.45v122.06c0,3.53-2.1,6.68-5.36,8.04
			L81.1,507.27C80.44,507.55,79.74,507.69,79.04,507.69z"/>
		<path class="st0" d="M155.17,469.88c0,2.86-1.71,5.42-4.35,6.52l-70.36,29.35c-1.15,0.48-2.4,0.36-3.44-0.33
			c-1.04-0.69-1.63-1.8-1.63-3.04V380.4c0-4.12,2.05-7.95,5.49-10.23c0.74-0.49,1.64-0.91,2.84-1.32l1.09-0.37l22.4-5.08
			c28.67-5.91,41.63-8.99,47.95-12.71V469.88z"/>
		<path class="st0" d="M161.25,339.18c-0.17-1.34-0.6-2.64-1.29-3.85c-2.23-3.94-6.66-6.08-11.45-5.59l-82.48,6.12
			c-9.98,0.66-17.8,9.02-17.8,19.02v124.93c0,8.27,5.29,15.53,13.17,18.08c1.62,0.52,3.36-0.37,3.89-1.99
			c0.52-1.62-0.37-3.36-1.99-3.89c-5.32-1.71-8.89-6.62-8.89-12.2V354.88c0-6.76,5.28-12.41,12.05-12.86l6.15-0.46v16.2l7.52-5.76
			l7.52,4.7v-16.27l61.39-4.55c2.45-0.24,4.52,0.68,5.54,2.48c0.33,0.59,0.52,1.22,0.58,1.86v0.72c-0.08,0.97-0.46,1.95-1.12,2.84
			c-3.31,4.08-20.37,7.84-48.14,13.56l-22.62,5.13c-0.11,0.03-0.21,0.05-0.32,0.09l-1.25,0.43c-1.72,0.59-3.07,1.23-4.26,2.02
			c-5.16,3.43-8.25,9.17-8.25,15.37v121.98c0,3.3,1.64,6.36,4.38,8.18c1.64,1.09,3.54,1.65,5.45,1.65c1.28,0,2.57-0.25,3.79-0.76
			l70.36-29.35c4.95-2.07,8.15-6.86,8.15-12.22V339.93C161.34,339.67,161.31,339.42,161.25,339.18z M155.17,469.88
			c0,2.86-1.71,5.42-4.35,6.52l-70.36,29.35c-1.15,0.48-2.4,0.36-3.44-0.33c-1.04-0.69-1.63-1.8-1.63-3.04V380.4
			c0-4.12,2.05-7.95,5.49-10.23c0.74-0.49,1.64-0.91,2.84-1.32l1.09-0.37l22.4-5.08c28.67-5.91,41.63-8.99,47.95-12.71V469.88z"/>
		<polygon class="st4" points="145.86,390.44 83.41,408.06 83.41,386.52 145.86,368.9 		"/>
		<polygon class="st5" points="146.46,451.35 83.41,474.63 83.41,473.91 146.46,450.63 		"/>
		<polygon class="st5" points="146.46,464.68 83.41,487.95 83.41,487.24 146.46,463.96 		"/>
	</g>
</g>
</svg>
